<?xml version="1.0" encoding="UTF-8" standalone="no"?>
<!-- Created with Inkscape (http://www.inkscape.org/) -->

<svg
   xmlns:dc="http://purl.org/dc/elements/1.1/"
   xmlns:cc="http://creativecommons.org/ns#"
   xmlns:rdf="http://www.w3.org/1999/02/22-rdf-syntax-ns#"
   xmlns:svg="http://www.w3.org/2000/svg"
   xmlns="http://www.w3.org/2000/svg"
   xmlns:sodipodi="http://sodipodi.sourceforge.net/DTD/sodipodi-0.dtd"
   xmlns:inkscape="http://www.inkscape.org/namespaces/inkscape"
   width="213.42464"
   height="47.416901"
   id="svg4099"
   version="1.1"
   inkscape:version="0.48.3.1 r9886"
   sodipodi:docname="Neues Dokument 3">
  <defs
     id="defs4101" />
  <sodipodi:namedview
     id="base"
     pagecolor="#ffffff"
     bordercolor="#666666"
     borderopacity="1.0"
     inkscape:pageopacity="0.0"
     inkscape:pageshadow="2"
     inkscape:zoom="0.35"
     inkscape:cx="268.14089"
     inkscape:cy="-27.720173"
     inkscape:document-units="px"
     inkscape:current-layer="layer1"
     showgrid="false"
     fit-margin-top="0"
     fit-margin-left="0"
     fit-margin-right="0"
     fit-margin-bottom="0"
     inkscape:window-width="613"
     inkscape:window-height="438"
     inkscape:window-x="665"
     inkscape:window-y="24"
     inkscape:window-maximized="0" />
  <metadata
     id="metadata4104">
    <rdf:RDF>
      <cc:Work
         rdf:about="">
        <dc:format>image/svg+xml</dc:format>
        <dc:type
           rdf:resource="http://purl.org/dc/dcmitype/StillImage" />
        <dc:title></dc:title>
      </cc:Work>
    </rdf:RDF>
  </metadata>
  <g
     inkscape:label="Ebene 1"
     inkscape:groupmode="layer"
     id="layer1"
     transform="translate(-81.859109,-457.22511)">
    <path
       inkscape:connector-curvature="0"
       id="path22"
       style="fill:#231f20;fill-opacity:1;fill-rule:nonzero;stroke:none"
       d="m 88.124994,476.22411 c 0,1.33788 0.07362,3.23488 0.78075,4.05275 0.7065,0.8545 1.82225,1.041 2.937,1.041 3.308501,0 5.837376,-1.48775 5.837376,-5.206 0,-2.936 -1.486875,-6.3575 -7.398876,-6.3575 -2.007875,0 -2.15625,0.22325 -2.15625,0.96688 l 0,5.50287 z m 0,-8.6255 c 0,1.04013 0.0365,1.11425 1.9335,1.04013 3.792001,-0.149 5.837001,-1.26375 5.837001,-4.75975 0,-3.64263 -2.714375,-5.01963 -5.539626,-5.01963 -0.818875,0 -1.3765,0.0747 -1.710375,0.22363 -0.372125,0.11237 -0.5205,0.29787 -0.5205,0.96687 l 0,7.54875 z m -3.049375,-4.94625 c 0,-2.7515 -0.148375,-3.42037 -1.82175,-3.606 l -1.189,-0.11225 c -0.297875,-0.22212 -0.26075,-0.78025 0.03663,-0.92925 2.007375,-0.1855 4.536125,-0.29775 7.993625,-0.29775 2.342376,0 4.573251,0.187 6.247126,1.0415 1.597625,0.78125 2.825125,2.269 2.825125,4.64688 0,2.67725 -1.5615,4.05275 -3.792,5.09425 0,0.37262 0.296875,0.48337 0.706125,0.55912 2.00725,0.37113 4.98238,2.2305 4.98238,6.2085 0,4.313 -3.197255,7.21338 -9.890131,7.21338 -1.078625,0 -2.900375,-0.11138 -4.461875,-0.11138 -1.63625,0 -2.900375,0.0733 -4.275875,0.11138 -0.222625,-0.11138 -0.297875,-0.707 -0.07375,-0.93063 l 0.669,-0.11087 c 1.970625,-0.29788 2.044375,-0.74313 2.044375,-4.6475 l 0,-14.12938" />
    <path
       inkscape:connector-curvature="0"
       id="path24"
       style="fill:#231f20;fill-opacity:1;fill-rule:nonzero;stroke:none"
       d="m 117.21824,470.18161 c 0,-1.84562 -0.0596,-5.27 -0.567,-6.162 -0.208,-0.358 -0.74362,-0.5665 -1.48825,-0.625 l -0.74412,-0.0601 c -0.17825,-0.2085 -0.11913,-0.59575 0.0601,-0.71538 1.13075,0.0601 2.23237,0.0894 3.393,0.0894 1.2515,0 2.05475,-0.0292 3.1265,-0.0894 0.23875,0.149 0.208,0.53713 0.0595,0.71538 l -0.71387,0.0601 c -0.74413,0.0585 -1.34025,0.32713 -1.48875,0.71375 -0.44725,0.983 -0.417,4.40588 -0.417,6.07325 l 0,3.36425 c 0,2.59038 -0.41738,5.32963 -2.084,7.11675 -1.28075,1.39888 -3.48338,2.17288 -5.686,2.17288 -2.05513,0 -4.10888,-0.38725 -5.56738,-1.63725 -1.57862,-1.3105 -2.32275,-3.48488 -2.32275,-7.02738 l 0,-7.02537 c 0,-3.09663 -0.0591,-3.6035 -1.78662,-3.75088 l -0.74463,-0.0601 c -0.17775,-0.11963 -0.11862,-0.625 0.0601,-0.71538 1.48875,0.0601 2.50088,0.0894 3.69188,0.0894 1.22012,0 2.20362,-0.0292 3.66162,-0.0894 0.17913,0.0904 0.23875,0.59575 0.0595,0.71538 l -0.71387,0.0601 c -1.7275,0.14738 -1.78712,0.65425 -1.78712,3.75088 l 0,6.43125 c 0,4.79187 1.48887,7.94862 6.0445,7.94862 4.31687,0 5.95462,-3.393 5.95462,-7.91937 l 0,-3.42438" />
    <path
       inkscape:connector-curvature="0"
       id="path26"
       style="fill:#231f20;fill-opacity:1;fill-rule:nonzero;stroke:none"
       d="m 126.47899,471.10449 c 0,0.80475 0.0888,0.80475 0.98188,0.80475 l 2.02487,0 c 1.22125,0 2.17388,-0.0601 2.53075,-0.17875 0.32763,-0.11913 0.5655,-0.2685 0.74413,-1.0425 l 0.26862,-1.19088 c 0.148,-0.17875 0.65425,-0.17875 0.773,0 0,0.71488 -0.11875,1.90675 -0.11875,3.00638 0,1.07325 0.11875,2.20312 0.11875,2.88812 -0.11875,0.17975 -0.565,0.17975 -0.773,0 l -0.29887,-1.16062 c -0.11813,-0.53613 -0.38625,-0.95213 -0.95213,-1.13088 -0.418,-0.11912 -1.16112,-0.14987 -2.2925,-0.14987 l -2.02487,0 c -0.89313,0 -0.98188,0.0308 -0.98188,0.80412 l 0,4.13875 c 0,3.126 0.059,3.57275 1.81488,3.72163 l 1.01275,0.0889 c 0.17912,0.11862 0.11962,0.65575 -0.0591,0.74462 -1.75688,-0.0595 -2.7685,-0.0889 -3.96,-0.0889 -1.309,0 -2.32175,0.0294 -3.72063,0.0889 -0.17925,-0.0889 -0.23875,-0.56587 -0.0601,-0.74462 l 0.74413,-0.0889 c 1.72762,-0.209 1.78662,-0.59563 1.78662,-3.72163 l 0,-10.71775 c 0,-3.1265 -0.059,-3.5425 -1.78662,-3.7515 l -0.476,-0.0601 c -0.17875,-0.11813 -0.11913,-0.65425 0.059,-0.74463 1.2515,0.0601 2.26325,0.0904 3.45362,0.0904 l 5.479,0 c 1.90488,0 3.63138,0 4.01913,-0.0904 0,1.36963 0.0288,2.79938 0.0894,3.93125 -0.0894,0.17775 -0.50688,0.267 -0.71488,0.0889 -0.23875,-1.33888 -0.59575,-2.41113 -2.0845,-2.82813 -0.65475,-0.1495 -1.63675,-0.17825 -2.88775,-0.17825 l -1.81538,0 c -0.8935,0 -0.8935,0.0581 -0.8935,1.19088 l 0,6.28075" />
    <path
       inkscape:connector-curvature="0"
       id="path28"
       style="fill:#231f20;fill-opacity:1;fill-rule:nonzero;stroke:none"
       d="m 141.30749,471.10449 c 0,0.80475 0.0885,0.80475 0.981,0.80475 l 2.02538,0 c 1.22075,0 2.17287,-0.0601 2.52987,-0.17875 0.32813,-0.11913 0.56638,-0.2685 0.74463,-1.0425 l 0.268,-1.19088 c 0.14887,-0.17875 0.65525,-0.17875 0.77437,0 0,0.71488 -0.11912,1.90675 -0.11912,3.00638 0,1.07325 0.11912,2.20312 0.11912,2.88812 -0.11912,0.17975 -0.56537,0.17975 -0.77437,0 l -0.29738,-1.16062 c -0.11962,-0.53613 -0.38712,-0.95213 -0.95262,-1.13088 -0.417,-0.11912 -1.16163,-0.14987 -2.2925,-0.14987 l -2.02538,0 c -0.8925,0 -0.981,0.0308 -0.981,0.80412 l 0,4.13875 c 0,3.126 0.0591,3.57275 1.8155,3.72163 l 1.01225,0.0889 c 0.17863,0.11862 0.11913,0.65575 -0.0601,0.74462 -1.75637,-0.0595 -2.76762,-0.0889 -3.96,-0.0889 -1.309,0 -2.32175,0.0294 -3.72062,0.0889 -0.17925,-0.0889 -0.23825,-0.56587 -0.0596,-0.74462 l 0.74462,-0.0889 c 1.72663,-0.209 1.78563,-0.59563 1.78563,-3.72163 l 0,-10.71775 c 0,-3.1265 -0.059,-3.5425 -1.78563,-3.7515 l -0.4765,-0.0601 c -0.17825,-0.11813 -0.11912,-0.65425 0.0595,-0.74463 1.25,0.0601 2.26275,0.0904 3.45263,0.0904 l 5.47862,0 c 1.90575,0 3.63225,0 4.0195,-0.0904 0,1.36963 0.0298,2.79938 0.0884,3.93125 -0.0884,0.17775 -0.50487,0.267 -0.71287,0.0889 -0.23875,-1.33888 -0.59575,-2.41113 -2.085,-2.82813 -0.65475,-0.1495 -1.63775,-0.17825 -2.88725,-0.17825 l -1.81687,0 c -0.89213,0 -0.89213,0.0581 -0.89213,1.19088 l 0,6.28075" />
    <path
       inkscape:connector-curvature="0"
       id="path30"
       style="fill:#231f20;fill-opacity:1;fill-rule:nonzero;stroke:none"
       d="m 153.18624,472.80224 c -0.2375,0.68512 -0.20875,0.71437 0.62625,0.71437 l 3.66125,0 c 0.86375,0 0.92375,-0.11962 0.655,-0.92287 l -1.6075,-4.8535 c -0.23875,-0.71438 -0.50625,-1.5175 -0.685,-1.875 l -0.0588,0 c -0.09,0.149 -0.3875,0.86287 -0.715,1.75687 l -1.87625,5.18013 z m 5.895,2.65037 c -0.2075,-0.65575 -0.3275,-0.746 -1.22,-0.746 l -4.49625,0 c -0.74375,0 -0.9225,0.0902 -1.13,0.71525 l -1.0425,3.1265 c -0.4475,1.33938 -0.6555,2.1435 -0.6555,2.47075 0,0.35638 0.1495,0.53613 0.863,0.59563 l 0.98375,0.0889 c 0.2075,0.149 0.2075,0.625 -0.06,0.74462 -0.775,-0.0595 -1.69687,-0.0595 -3.09625,-0.0889 -0.9825,0 -2.05475,0.0586 -2.85837,0.0889 -0.17825,-0.11963 -0.23838,-0.59563 -0.0601,-0.74463 l 0.98287,-0.0889 c 0.71388,-0.0595 1.36963,-0.38712 1.78625,-1.459 0.53613,-1.36962 1.36913,-3.30562 2.62063,-6.63912 l 3.03625,-8.0385 c 0.41625,-1.07287 0.59625,-1.63675 0.50625,-2.11437 0.715,-0.2075 1.22,-0.74463 1.5475,-1.13038 0.17875,0 0.3875,0.0586 0.4475,0.26763 0.3875,1.31012 0.86375,2.67975 1.30875,3.98925 l 4.08,11.96775 c 0.8625,2.56112 1.25,3.00787 2.52875,3.15675 l 0.80625,0.0889 c 0.2075,0.149 0.14625,0.625 0,0.74462 -1.2225,-0.0595 -2.26375,-0.0889 -3.60375,-0.0889 -1.42875,0 -2.56,0.0586 -3.42375,0.0889 -0.2375,-0.11962 -0.2675,-0.59562 -0.0588,-0.74462 l 0.86375,-0.0889 c 0.625,-0.0595 1.04125,-0.23925 1.04125,-0.53613 0,-0.32662 -0.14875,-0.86275 -0.3875,-1.57812 l -1.31,-4.04788" />
    <path
       inkscape:connector-curvature="0"
       id="path32"
       style="fill:#231f20;fill-opacity:1;fill-rule:nonzero;stroke:none"
       d="m 168.13374,467.17536 c 0,-3.1265 -0.06,-3.60262 -1.935,-3.7515 l -0.74375,-0.0601 c -0.18,-0.11813 -0.12,-0.65425 0.0588,-0.74463 1.6675,0.0601 2.68,0.0894 3.87125,0.0894 1.16,0 2.17375,-0.0292 3.6625,-0.0894 0.1775,0.0904 0.23625,0.6265 0.0588,0.74463 l -0.715,0.0601 c -1.75625,0.14888 -1.8175,0.625 -1.8175,3.7515 l 0,10.36075 c 0,1.875 0.0913,2.6495 0.62625,3.21588 0.3275,0.32662 0.89375,0.68362 3.24625,0.68362 2.53,0 3.155,-0.11962 3.63125,-0.38725 0.595,-0.3565 1.37,-1.42975 1.965,-2.94675 0.17875,-0.149 0.74375,-0.0302 0.74375,0.17825 0,0.32713 -0.83375,3.36425 -1.25,4.16838 -1.5175,-0.0595 -4.34625,-0.0889 -7.4125,-0.0889 l -2.73875,0 c -1.25125,0 -2.20375,0.0294 -3.87125,0.0889 -0.17875,-0.0889 -0.23875,-0.56588 -0.0588,-0.74463 l 0.8925,-0.0889 c 1.72625,-0.17912 1.78625,-0.59562 1.78625,-3.72162 l 0,-10.71775" />
    <path
       inkscape:connector-curvature="0"
       id="path34"
       style="fill:#231f20;fill-opacity:1;fill-rule:nonzero;stroke:none"
       d="m 198.6825,473.36774 c 0,-4.91363 -2.175,-10.2115 -7.86125,-10.2115 -3.09625,0 -7.115,2.11337 -7.115,8.63337 0,4.40675 2.14375,10.123 8.00875,10.123 3.5725,0 6.9675,-2.67962 6.9675,-8.54487 z m -17.95376,-0.626 c 0,-5.95363 4.46626,-10.50838 10.60001,-10.50838 6.8775,0 10.33,4.97225 10.33,10.2115 0,6.01313 -4.585,10.39063 -10.33,10.39063 -6.61,0 -10.60001,-4.73388 -10.60001,-10.09375" />
    <path
       inkscape:connector-curvature="0"
       id="path36"
       style="fill:#231f20;fill-opacity:1;fill-rule:nonzero;stroke:none"
       d="m 220.655,482.95361 c -3.1225,0 -5.0925,-0.96625 -5.8,-1.3755 -0.445,-0.81787 -0.93,-3.4585 -1.00375,-5.206 0.185,-0.26025 0.74375,-0.335 0.89125,-0.11137 0.55875,1.897 2.0825,5.5405 6.39625,5.5405 3.1225,0 4.6475,-2.04438 4.6475,-4.27588 0,-1.63575 -0.33375,-3.4585 -3.04875,-5.205 l -3.5325,-2.30612 c -1.85875,-1.22663 -4.015,-3.34575 -4.015,-6.39513 0,-3.53175 2.75125,-6.394 7.585,-6.394 1.15125,0 2.49,0.18413 3.4575,0.482 0.48375,0.11225 1.005,0.22363 1.30125,0.22363 0.335,0.892 0.67,2.97362 0.67,4.53612 -0.14875,0.22213 -0.745,0.33438 -0.93,0.11225 -0.48375,-1.78462 -1.4875,-4.20312 -5.05625,-4.20312 -3.64375,0 -4.425,2.4185 -4.425,4.1275 0,2.15675 1.78625,3.68162 3.16,4.57362 l 2.97375,1.85938 c 2.34375,1.45025 4.64875,3.606 4.64875,7.13875 0,4.08937 -3.08625,6.87837 -7.92,6.87837" />
    <path
       inkscape:connector-curvature="0"
       id="path38"
       style="fill:#231f20;fill-opacity:1;fill-rule:nonzero;stroke:none"
       d="m 239.60625,477.89311 c 0,3.126 0.06,3.5425 1.7875,3.72163 l 0.95125,0.0889 c 0.18,0.11862 0.11875,0.65575 -0.0588,0.74462 -1.6975,-0.0595 -2.70875,-0.0889 -3.90125,-0.0889 -1.19,0 -2.2325,0.0294 -4.1375,0.0889 -0.18,-0.0889 -0.23875,-0.59562 0,-0.74462 l 1.07,-0.0889 c 1.69875,-0.14888 1.8475,-0.59563 1.8475,-3.72163 l 0,-13.30862 c 0,-0.92288 0,-0.95163 -0.8925,-0.95163 l -1.63875,0 c -1.28125,0 -2.9175,0.0581 -3.66125,0.74313 -0.715,0.65525 -1.01375,1.311 -1.34,2.05475 -0.23875,0.17912 -0.655,0.0302 -0.775,-0.208 0.47625,-1.33988 0.925,-3.24563 1.13375,-4.43713 0.0875,-0.0585 0.475,-0.0879 0.56375,0 0.17875,0.95313 1.16125,0.92388 2.53,0.92388 l 12.06,0 c 1.6075,0 1.875,-0.0596 2.32125,-0.835 0.14875,-0.0595 0.47625,-0.0292 0.53625,0.0904 -0.32875,1.22125 -0.53625,3.63188 -0.4475,4.52538 -0.11745,0.23787 -0.6262,0.23787 -0.7737,0.0601 -0.0888,-0.74462 -0.29625,-1.84625 -0.7425,-2.17437 -0.68625,-0.50538 -1.8175,-0.74313 -3.455,-0.74313 l -2.115,0 c -0.89125,0 -0.8625,0.0288 -0.8625,1.01175 l 0,13.2485" />
    <path
       inkscape:connector-curvature="0"
       id="path40"
       style="fill:#231f20;fill-opacity:1;fill-rule:nonzero;stroke:none"
       d="m 250.565,472.80224 c -0.24,0.68512 -0.20875,0.71437 0.625,0.71437 l 3.66125,0 c 0.8625,0 0.92375,-0.11962 0.655,-0.92287 L 253.9,467.74024 c -0.24,-0.71438 -0.50875,-1.5175 -0.68625,-1.875 l -0.0587,0 c -0.09,0.149 -0.38875,0.86287 -0.715,1.75687 l -1.875,5.18013 z m 5.8925,2.65037 c -0.2075,-0.65575 -0.325,-0.746 -1.22,-0.746 l -4.495,0 c -0.745,0 -0.9225,0.0902 -1.13,0.71525 l -1.0425,3.1265 c -0.4475,1.33938 -0.65625,2.1435 -0.65625,2.47075 0,0.35638 0.15,0.53613 0.86375,0.59563 l 0.9825,0.0889 c 0.20875,0.149 0.20875,0.625 -0.06,0.74462 -0.77375,-0.0595 -1.69625,-0.0595 -3.095,-0.0889 -0.9825,0 -2.055,0.0586 -2.85875,0.0889 -0.17875,-0.11962 -0.23875,-0.59562 -0.0587,-0.74462 l 0.98125,-0.0889 c 0.715,-0.0595 1.37,-0.38713 1.7875,-1.459 0.535,-1.36963 1.36875,-3.30563 2.61875,-6.63913 l 3.0375,-8.0385 c 0.4175,-1.07287 0.595,-1.63675 0.505,-2.11437 0.715,-0.2075 1.22125,-0.74463 1.54875,-1.13038 0.17875,0 0.3875,0.0586 0.4475,0.26763 0.385,1.31012 0.8625,2.67975 1.30875,3.98925 l 4.07875,11.96775 c 0.865,2.56112 1.25,3.00787 2.53125,3.15675 l 0.8025,0.0889 c 0.20875,0.149 0.15125,0.625 0,0.74462 -1.21875,-0.0595 -2.26,-0.0889 -3.6,-0.0889 -1.43125,0 -2.56125,0.0586 -3.425,0.0889 -0.2375,-0.11962 -0.26875,-0.59562 -0.06,-0.74462 l 0.86375,-0.0889 c 0.62625,-0.0595 1.0425,-0.23925 1.0425,-0.53613 0,-0.32662 -0.14875,-0.86275 -0.3875,-1.57812 l -1.3113,-4.04788" />
    <path
       inkscape:connector-curvature="0"
       id="path42"
       style="fill:#231f20;fill-opacity:1;fill-rule:nonzero;stroke:none"
       d="m 270.09625,477.89311 c 0,3.126 0.0575,3.5425 1.78375,3.72163 l 0.955,0.0889 c 0.17875,0.11862 0.12,0.65575 -0.06,0.74462 -1.6975,-0.0595 -2.70875,-0.0889 -3.9,-0.0889 -1.19125,0 -2.23375,0.0294 -4.1375,0.0889 -0.17875,-0.0889 -0.23875,-0.59562 0,-0.74462 l 1.07125,-0.0889 c 1.69625,-0.14888 1.845,-0.59563 1.845,-3.72163 l 0,-13.30862 c 0,-0.92288 0,-0.95163 -0.8925,-0.95163 l -1.6375,0 c -1.28,0 -2.91875,0.0581 -3.6625,0.74313 -0.71375,0.65525 -1.01125,1.311 -1.33875,2.05475 -0.23875,0.17912 -0.655,0.0302 -0.775,-0.208 0.4775,-1.33988 0.9225,-3.24563 1.13125,-4.43713 0.09,-0.0585 0.47625,-0.0879 0.56625,0 0.17875,0.95313 1.16,0.92388 2.53,0.92388 l 12.0575,0 c 1.60875,0 1.87625,-0.0596 2.32375,-0.835 0.1475,-0.0595 0.47625,-0.0292 0.535,0.0904 -0.32625,1.22125 -0.535,3.63188 -0.44625,4.52538 -0.12,0.23787 -0.62625,0.23787 -0.77375,0.0601 -0.09,-0.74462 -0.2975,-1.84625 -0.745,-2.17437 -0.685,-0.50538 -1.81625,-0.74313 -3.45375,-0.74313 l -2.11375,0 c -0.8925,0 -0.8625,0.0288 -0.8625,1.01175 l 0,13.2485" />
    <path
       inkscape:connector-curvature="0"
       id="path44"
       style="fill:#231f20;fill-opacity:1;fill-rule:nonzero;stroke:none"
       d="m 282.00625,467.17536 c 0,-3.09725 -0.06,-3.5425 -1.81625,-3.7515 l -0.47625,-0.0601 c -0.18,-0.11813 -0.11875,-0.65425 0.06,-0.74463 1.28,0.0601 2.2925,0.0904 3.5125,0.0904 l 5.5975,0 c 1.905,0 3.6625,0 4.01875,-0.0904 0.17875,0.50688 0.3575,2.6505 0.4775,3.96 -0.12,0.17875 -0.59625,0.23825 -0.745,0.0601 -0.4475,-1.399 -0.715,-2.4415 -2.26375,-2.82813 -0.625,-0.1495 -1.57625,-0.17825 -2.8875,-0.17825 l -2.14375,0 c -0.8925,0 -0.8925,0.0581 -0.8925,1.19088 l 0,5.95362 c 0,0.834 0.0888,0.834 0.9825,0.834 l 1.72625,0 c 1.25,0 2.1725,-0.0601 2.53125,-0.17875 0.3575,-0.11962 0.56625,-0.29787 0.715,-1.0425 l 0.2375,-1.22012 c 0.14875,-0.17825 0.655,-0.17825 0.77375,0.0288 0,0.71587 -0.11875,1.8765 -0.11875,3.00787 0,1.07225 0.11875,2.20263 0.11875,2.85788 -0.11875,0.209 -0.625,0.209 -0.77375,0.0303 l -0.26875,-1.16213 c -0.1175,-0.53562 -0.32625,-0.98237 -0.9225,-1.13037 -0.41625,-0.11963 -1.13,-0.14838 -2.2925,-0.14838 l -1.72625,0 c -0.89375,0 -0.9825,0.0288 -0.9825,0.80275 l 0,4.19825 c 0,1.57813 0.0888,2.59025 0.565,3.09713 0.3575,0.356 0.9825,0.68362 3.6025,0.68362 2.29375,0 3.15625,-0.11962 3.81125,-0.44587 0.53625,-0.29788 1.34125,-1.34025 2.1125,-2.88813 0.21,-0.149 0.62625,-0.0601 0.745,0.2075 -0.2075,1.0435 -0.9525,3.335 -1.33875,4.13913 -2.68,-0.0595 -5.33,-0.0889 -7.98,-0.0889 l -2.67875,0 c -1.28,0 -2.29375,0.0294 -4.04875,0.0889 -0.17875,-0.0889 -0.2375,-0.56588 -0.06,-0.74463 l 0.9825,-0.0889 c 1.69875,-0.14887 1.84625,-0.59562 1.84625,-3.72162 l 0,-10.71775" />
    <path
       inkscape:connector-curvature="0"
       id="path46"
       style="fill:#231f20;fill-opacity:1;fill-rule:nonzero;stroke:none"
       d="m 88.393494,498.27249 c 0,1.67577 0.03175,1.90038 0.9575,1.99608 l 0.51125,0.0474 c 0.09575,0.0635 0.064,0.35157 -0.03225,0.39893 -0.909625,-0.0317 -1.452125,-0.0474 -2.09025,-0.0474 -0.63925,0 -1.197375,0.0156 -2.21925,0.0474 -0.09575,-0.0474 -0.128,-0.31835 0,-0.39893 l 0.574125,-0.0474 c 0.91025,-0.0811 0.99025,-0.32031 0.99025,-1.99608 l 0,-7.13475 c 0,-0.49613 0,-0.51175 -0.479,-0.51175 l -0.878375,0 c -0.686,0 -1.564,0.0333 -1.962375,0.39887 -0.383375,0.35213 -0.543,0.70325 -0.71825,1.10263 -0.1285,0.0952 -0.351625,0.0161 -0.415625,-0.11238 0.255375,-0.71775 0.494125,-1.73975 0.6065,-2.37937 0.04787,-0.0303 0.255375,-0.0474 0.30375,0 0.09562,0.51175 0.622,0.49562 1.356375,0.49562 l 6.464375,0 c 0.862251,0 1.005876,-0.0317 1.245626,-0.44625 0.07963,-0.0317 0.255375,-0.0161 0.287125,0.0474 -0.175375,0.65425 -0.287125,1.94725 -0.23875,2.42671 -0.064,0.12794 -0.3355,0.12794 -0.415625,0.0317 -0.04825,-0.39945 -0.160125,-0.9897 -0.399376,-1.16607 -0.36675,-0.27088 -0.973125,-0.39888 -1.851125,-0.39888 l -1.13325,0 c -0.479,0 -0.463375,0.0156 -0.463375,0.5435 l 0,7.103" />
    <path
       inkscape:connector-curvature="0"
       id="path48"
       style="fill:#231f20;fill-opacity:1;fill-rule:nonzero;stroke:none"
       d="m 94.46037,491.66361 c 0,-0.94137 -0.01612,-1.03762 -0.495125,-1.32475 l -0.158625,-0.0953 c -0.08063,-0.0482 -0.08063,-0.27187 0,-0.31925 0.399375,-0.1285 1.148875,-0.36775 1.723625,-0.67137 0.0635,0 0.127375,0.0326 0.160125,0.0961 -0.01662,0.4795 -0.04838,1.27687 -0.04838,1.98 l 0,3.35206 c 0,0.14404 0.01563,0.27197 0.0635,0.30371 0.57525,-0.44775 1.340875,-0.83007 2.15525,-0.83007 1.516625,0 2.059125,0.9414 2.059125,2.05956 l 0,2.66455 c 0,1.1504 0.03275,1.32617 0.606375,1.38965 l 0.43125,0.0474 c 0.11175,0.0806 0.0795,0.35156 -0.0318,0.39892 -0.57475,-0.0317 -1.037625,-0.0474 -1.59675,-0.0474 -0.574625,0 -1.053125,0.0156 -1.484375,0.0474 -0.11125,-0.0474 -0.143,-0.31835 -0.03213,-0.39892 l 0.31925,-0.0474 c 0.590875,-0.0957 0.6065,-0.23925 0.6065,-1.38965 l 0,-2.28223 c 0,-1.02197 -0.494125,-1.708 -1.516125,-1.708 -0.5425,0 -0.9575,0.19043 -1.245125,0.43115 -0.286625,0.24024 -0.335,0.31837 -0.335,0.87842 l 0,2.68066 c 0,1.1504 0.03175,1.3086 0.607,1.38965 l 0.334875,0.0474 c 0.111875,0.0635 0.07912,0.35156 -0.03213,0.39892 -0.478625,-0.0317 -0.942,-0.0474 -1.5005,-0.0474 -0.57425,0 -1.05325,0.0156 -1.5635,0.0474 -0.111875,-0.0474 -0.145,-0.31835 -0.03325,-0.39892 l 0.3995,-0.0474 c 0.59025,-0.0635 0.606375,-0.23925 0.606375,-1.38965 l 0,-7.21531" />
    <path
       inkscape:connector-curvature="0"
       id="path50"
       style="fill:#231f20;fill-opacity:1;fill-rule:nonzero;stroke:none"
       d="m 104.34274,496.10207 c 1.18163,0 1.53225,-0.0649 1.66013,-0.16016 0.0474,-0.0327 0.0957,-0.0962 0.0957,-0.3037 0,-0.44581 -0.30325,-1.0044 -1.229,-1.0044 -0.942,0 -1.75538,0.86133 -1.7715,1.3877 0,0.0317 0,0.0806 0.11175,0.0806 l 1.13287,0 z m -0.99025,0.47852 c -0.41462,0 -0.43025,0.0317 -0.43025,0.43066 0,1.6128 0.942,2.98486 2.6495,2.98486 0.52688,0 0.97313,-0.15869 1.46875,-0.78125 0.15963,-0.0488 0.2715,0.0479 0.28663,0.19141 -0.52588,1.08545 -1.67538,1.48438 -2.50588,1.48438 -1.03762,0 -1.85162,-0.44678 -2.314,-1.05323 -0.479,-0.62256 -0.66987,-1.37353 -0.66987,-2.0752 0,-1.96288 1.292,-3.60741 3.208,-3.60741 1.373,0 2.26662,0.9414 2.26662,1.89844 0,0.22314 -0.0322,0.35156 -0.064,0.41504 -0.0479,0.0976 -0.271,0.1123 -0.94187,0.1123 l -2.95363,0" />
    <path
       inkscape:connector-curvature="0"
       id="path52"
       style="fill:#231f20;fill-opacity:1;fill-rule:nonzero;stroke:none"
       d="m 115.16649,500.92239 c -1.34037,0 -2.18712,-0.41455 -2.49025,-0.59083 -0.1915,-0.35156 -0.3985,-1.48437 -0.43075,-2.23486 0.0796,-0.11133 0.31888,-0.14404 0.38338,-0.0474 0.23925,0.81396 0.8935,2.37891 2.74612,2.37891 1.33975,0 1.99463,-0.87891 1.99463,-1.83594 0,-0.70312 -0.14463,-1.48535 -1.30963,-2.23486 l -1.51612,-0.98926 c -0.79838,-0.52685 -1.72363,-1.4375 -1.72363,-2.7461 0,-1.5166 1.18113,-2.7456 3.25588,-2.7456 0.49562,0 1.07025,0.0796 1.48487,0.2075 0.2075,0.0474 0.43063,0.0953 0.559,0.0953 0.14363,0.38325 0.28763,1.27787 0.28763,1.94825 -0.0639,0.0952 -0.31975,0.14255 -0.39988,0.0478 -0.207,-0.76658 -0.63812,-1.8047 -2.17087,-1.8047 -1.564,0 -1.899,1.03812 -1.899,1.77296 0,0.92481 0.76612,1.5791 1.356,1.96289 l 1.27787,0.79932 c 1.00588,0.62109 1.99513,1.54639 1.99513,3.06397 0,1.75537 -1.32525,2.95263 -3.40038,2.95263" />
    <path
       inkscape:connector-curvature="0"
       id="path54"
       style="fill:#231f20;fill-opacity:1;fill-rule:nonzero;stroke:none"
       d="m 122.27137,495.04885 c -0.27138,0 -0.287,0.0474 -0.287,0.38281 l 0,2.98486 c 0,0.9253 0.11125,1.771 1.165,1.771 0.15912,0 0.30275,-0.0317 0.43012,-0.0791 0.14413,-0.0474 0.35163,-0.22363 0.39988,-0.22363 0.127,0 0.1905,0.17627 0.15925,0.271 -0.28763,0.33593 -0.86238,0.73486 -1.67625,0.73486 -1.37263,0 -1.65975,-0.7666 -1.65975,-1.72461 l 0,-3.65479 c 0,-0.43213 -0.0165,-0.4624 -0.33488,-0.4624 l -0.44775,0 c -0.0958,-0.064 -0.11187,-0.23926 -0.0474,-0.33594 0.46238,-0.14257 0.86225,-0.35156 1.0215,-0.49462 0.2075,-0.19142 0.51113,-0.62208 0.67088,-0.94239 0.0786,-0.0317 0.271,-0.0317 0.335,0.0811 l 0,0.71727 c 0,0.28712 0.0156,0.3042 0.287,0.3042 l 1.7715,0 c 0.19187,0.14405 0.16025,0.57472 0.0161,0.67042 l -1.80325,0" />
    <path
       inkscape:connector-curvature="0"
       id="path56"
       style="fill:#231f20;fill-opacity:1;fill-rule:nonzero;stroke:none"
       d="m 127.09224,500.17287 c 0.31925,0 0.814,-0.24023 0.97363,-0.3999 0.19137,-0.1919 0.2075,-0.41503 0.2075,-0.74951 l 0.0323,-0.94239 c 0,-0.17626 -0.064,-0.20751 -0.15925,-0.20751 -0.0966,0 -0.36813,0.0645 -0.65425,0.15966 -0.94238,0.31983 -1.40525,0.55909 -1.40525,1.18164 0,0.271 0.19187,0.95801 1.00537,0.95801 z m 0.98925,-2.81006 c 0.24025,-0.0806 0.25538,-0.22314 0.272,-0.46337 l 0.0161,-0.73389 c 0.0156,-0.59083 -0.17587,-1.38916 -1.16562,-1.38916 -0.44675,0 -0.98975,0.22461 -1.02188,0.71875 -0.0152,0.25537 -0.0318,0.44677 -0.15975,0.542 -0.23925,0.19188 -0.66937,0.3042 -0.90962,0.3042 -0.144,0 -0.22313,-0.0796 -0.22313,-0.22315 0,-0.83057 1.80313,-1.96338 2.96875,-1.96338 1.14888,0 1.7075,0.6704 1.66063,1.8667 l -0.0958,2.77831 c -0.0326,0.73389 0.11187,1.3877 0.73387,1.3877 0.15975,0 0.30375,-0.0474 0.399,-0.0952 0.0805,-0.0474 0.15913,-0.11231 0.2075,-0.11231 0.0635,0 0.11138,0.0967 0.11138,0.20753 0,0.0811 -0.55813,0.70312 -1.33988,0.70312 -0.38387,0 -0.76662,-0.14356 -1.03812,-0.49414 -0.0635,-0.0962 -0.16013,-0.22363 -0.25538,-0.22363 -0.11175,0 -0.30375,0.14306 -0.6225,0.31885 -0.35062,0.1914 -0.70262,0.39892 -1.15,0.39892 -0.46237,0 -0.84512,-0.12794 -1.11612,-0.36719 -0.30425,-0.271 -0.49563,-0.67041 -0.49563,-1.11718 0,-0.62208 0.30375,-0.98975 1.32475,-1.35694 l 1.89937,-0.68653" />
    <path
       inkscape:connector-curvature="0"
       id="path58"
       style="fill:#231f20;fill-opacity:1;fill-rule:nonzero;stroke:none"
       d="m 133.62099,495.04885 c -0.271,0 -0.28662,0.0474 -0.28662,0.38281 l 0,2.98486 c 0,0.9253 0.11187,1.771 1.16462,1.771 0.16063,0 0.30363,-0.0317 0.43163,-0.0791 0.143,-0.0474 0.35062,-0.22363 0.39837,-0.22363 0.128,0 0.19288,0.17627 0.16075,0.271 -0.28812,0.33593 -0.86287,0.73486 -1.67637,0.73486 -1.373,0 -1.66063,-0.7666 -1.66063,-1.72461 l 0,-3.65479 c 0,-0.43213 -0.0161,-0.4624 -0.3345,-0.4624 l -0.44775,0 c -0.0946,-0.064 -0.11125,-0.23926 -0.0474,-0.33594 0.46338,-0.14257 0.86138,-0.35156 1.021,-0.49462 0.20763,-0.19142 0.51075,-0.62208 0.6705,-0.94239 0.0805,-0.0317 0.2715,-0.0317 0.33538,0.0811 l 0,0.71727 c 0,0.28712 0.0161,0.3042 0.28762,0.3042 l 1.772,0 c 0.19088,0.14405 0.15913,0.57472 0.0156,0.67042 l -1.80425,0" />
    <path
       inkscape:connector-curvature="0"
       id="path60"
       style="fill:#231f20;fill-opacity:1;fill-rule:nonzero;stroke:none"
       d="m 138.71424,496.10207 c 1.18075,0 1.53275,-0.0649 1.65975,-0.16016 0.0482,-0.0327 0.0966,-0.0962 0.0966,-0.3037 0,-0.44581 -0.30412,-1.0044 -1.2295,-1.0044 -0.94237,0 -1.75587,0.86133 -1.77237,1.3877 0,0.0317 0,0.0806 0.11175,0.0806 l 1.13375,0 z m -0.98975,0.47852 c -0.415,0 -0.43162,0.0317 -0.43162,0.43066 0,1.6128 0.94237,2.98486 2.64987,2.98486 0.52788,0 0.97413,-0.15869 1.46925,-0.78125 0.15975,-0.0488 0.271,0.0479 0.28713,0.19141 -0.52688,1.08545 -1.67525,1.48438 -2.50638,1.48438 -1.037,0 -1.852,-0.44678 -2.31387,-1.05323 -0.4785,-0.62256 -0.67038,-1.37353 -0.67038,-2.0752 0,-1.96288 1.29238,-3.60741 3.208,-3.60741 1.3725,0 2.2665,0.9414 2.2665,1.89844 0,0.22314 -0.0321,0.35156 -0.0639,0.41504 -0.0474,0.0976 -0.271,0.1123 -0.94187,0.1123 l -2.95275,0" />
    <path
       inkscape:connector-curvature="0"
       id="path62"
       style="fill:#231f20;fill-opacity:1;fill-rule:nonzero;stroke:none"
       d="m 155.61999,494.13821 c 0,-0.98877 -0.0325,-2.82522 -0.30375,-3.30472 -0.11125,-0.19188 -0.39875,-0.30275 -0.7975,-0.3345 l -0.39875,-0.0326 c -0.0962,-0.11138 -0.0637,-0.31888 0.0312,-0.38238 0.60625,0.0318 1.1975,0.0474 1.82,0.0474 0.67,0 1.10125,-0.0156 1.67625,-0.0474 0.1275,0.0796 0.11125,0.28663 0.0312,0.38238 l -0.38375,0.0326 c -0.3975,0.0317 -0.7175,0.17587 -0.79625,0.38337 -0.24,0.52638 -0.22375,2.3618 -0.22375,3.25585 l 0,1.8037 c 0,1.38965 -0.22375,2.85791 -1.11875,3.81495 -0.685,0.75098 -1.8675,1.16553 -3.04875,1.16553 -1.10125,0 -2.20225,-0.20753 -2.9845,-0.87744 -0.84625,-0.70313 -1.24462,-1.86769 -1.24462,-3.76856 l 0,-3.76709 c 0,-1.65869 -0.0322,-1.93119 -0.958,-2.01031 l -0.399,-0.0326 c -0.0961,-0.064 -0.0639,-0.335 0.0318,-0.38238 0.79787,0.0318 1.34037,0.0474 1.9795,0.0474 0.65387,0 1.18075,-0.0156 1.96287,-0.0474 0.0968,0.0474 0.1275,0.31838 0.0323,0.38238 l -0.38325,0.0326 c -0.92537,0.0791 -0.958,0.35162 -0.958,2.01031 l 0,3.44971 c 0,2.56835 0.79925,4.26171 3.241,4.26171 2.31375,0 3.1925,-1.82031 3.1925,-4.24707 l 0,-1.83544" />
    <path
       inkscape:connector-curvature="0"
       id="path64"
       style="fill:#231f20;fill-opacity:1;fill-rule:nonzero;stroke:none"
       d="m 159.43624,496.08645 c 0,-0.62403 0,-0.70313 -0.43,-0.99024 l -0.145,-0.0952 c -0.0637,-0.0635 -0.0637,-0.23926 0.0162,-0.28809 0.3675,-0.12695 1.2775,-0.54198 1.59625,-0.78222 0.0637,0 0.14375,0.0327 0.175,0.11181 -0.0312,0.36768 -0.0312,0.60694 -0.0312,0.75098 0,0.0952 0.0637,0.17432 0.175,0.17432 0.67125,-0.41504 1.42125,-0.81299 2.235,-0.81299 1.32625,0 1.8675,0.90967 1.8675,1.979 l 0,2.74512 c 0,1.1504 0.0325,1.3086 0.6075,1.38965 l 0.35,0.0474 c 0.1125,0.0806 0.0813,0.35156 -0.0312,0.39892 -0.47875,-0.0317 -0.9425,-0.0474 -1.50125,-0.0474 -0.57375,0 -1.0525,0.0156 -1.48375,0.0474 -0.1125,-0.0474 -0.1425,-0.31835 -0.0312,-0.39892 l 0.3025,-0.0474 c 0.59,-0.0957 0.60625,-0.23925 0.60625,-1.38965 l 0,-2.3789 c 0,-0.9082 -0.415,-1.57959 -1.5,-1.57959 -0.60625,0 -1.13375,0.25634 -1.35625,0.55907 -0.20875,0.271 -0.24,0.49414 -0.24,0.95704 l 0,2.44238 c 0,1.1504 0.0312,1.29395 0.60625,1.38965 l 0.2875,0.0474 c 0.11125,0.0806 0.08,0.35156 -0.0312,0.39892 -0.43125,-0.0317 -0.89375,-0.0474 -1.45375,-0.0474 -0.57375,0 -1.0525,0.0156 -1.5,0.0474 -0.1125,-0.0474 -0.14375,-0.31835 -0.0312,-0.39892 l 0.335,-0.0474 c 0.59125,-0.0811 0.60625,-0.23925 0.60625,-1.38965 l 0,-2.79248" />
    <path
       inkscape:connector-curvature="0"
       id="path66"
       style="fill:#231f20;fill-opacity:1;fill-rule:nonzero;stroke:none"
       d="m 169.12624,490.91411 c 0,0.559 -0.39875,0.814 -0.83,0.814 -0.495,0 -0.81375,-0.35112 -0.81375,-0.78225 0,-0.52737 0.39875,-0.84625 0.86125,-0.84625 0.48,0 0.7825,0.36675 0.7825,0.8145 z m -1.30875,5.17234 c 0,-0.62403 0,-0.70313 -0.43,-0.99024 l -0.145,-0.0952 c -0.0637,-0.0635 -0.0637,-0.23926 0.0162,-0.28809 0.3675,-0.12695 1.2775,-0.54198 1.64375,-0.78222 0.08,0 0.145,0.0327 0.16,0.0962 -0.0312,0.55909 -0.0637,1.32569 -0.0637,1.97999 l 0,2.87206 c 0,1.1504 0.0325,1.3086 0.60625,1.38965 l 0.33625,0.0474 c 0.11,0.0806 0.0788,0.35156 -0.0337,0.39892 -0.4775,-0.0317 -0.94125,-0.0474 -1.49875,-0.0474 -0.575,0 -1.055,0.0156 -1.50125,0.0474 -0.11125,-0.0474 -0.1425,-0.31835 -0.0325,-0.39892 l 0.33625,-0.0474 c 0.59,-0.0811 0.60625,-0.23925 0.60625,-1.38965 l 0,-2.79248" />
    <path
       inkscape:connector-curvature="0"
       id="path68"
       style="fill:#231f20;fill-opacity:1;fill-rule:nonzero;stroke:none"
       d="m 171.66499,495.95901 c -0.23875,-0.59082 -0.3825,-1.10205 -0.9575,-1.18262 l -0.31875,-0.0478 c -0.0963,-0.12647 -0.08,-0.3501 0.0475,-0.39747 0.39875,0.0303 0.9575,0.0474 1.5,0.0474 0.43125,0 0.75,-0.0171 1.2925,-0.0474 0.11125,0.063 0.12875,0.31837 0.0163,0.39747 l -0.19125,0.0332 c -0.495,0.0796 -0.51,0.1587 -0.35,0.63818 0.36625,1.1001 0.83,2.21827 1.19625,3.04834 0.14375,0.31983 0.2075,0.4624 0.25625,0.51124 0.0625,-0.0488 0.17375,-0.27198 0.3025,-0.60645 0.2075,-0.54296 0.74875,-1.93261 0.91,-2.34619 0.2225,-0.55909 0.28625,-0.89454 0.28625,-0.99024 0,-0.14355 -0.095,-0.20703 -0.28625,-0.24023 l -0.36875,-0.0478 c -0.095,-0.11084 -0.0787,-0.33448 0.0325,-0.39747 0.495,0.0303 0.895,0.0474 1.19875,0.0474 0.39875,0 0.67,-0.0171 1.1175,-0.0474 0.11,0.063 0.12625,0.30274 0.03,0.39747 l -0.24,0.0332 c -0.5575,0.0796 -0.70125,0.49316 -1.16375,1.38916 -0.22375,0.42969 -1.21375,2.74414 -1.46875,3.39844 -0.16,0.39892 -0.31875,0.7666 -0.52625,1.30957 -0.0325,0.0479 -0.0962,0.0635 -0.16,0.0635 -0.0787,0 -0.16,-0.0156 -0.20875,-0.0635 -0.12625,-0.44776 -0.36625,-1.06885 -0.605,-1.66016 l -1.34125,-3.23974" />
    <path
       inkscape:connector-curvature="0"
       id="path70"
       style="fill:#231f20;fill-opacity:1;fill-rule:nonzero;stroke:none"
       d="m 180.31749,496.10207 c 1.18125,0 1.5325,-0.0649 1.66001,-0.16016 0.0487,-0.0327 0.0962,-0.0962 0.0962,-0.3037 0,-0.44581 -0.30376,-1.0044 -1.23001,-1.0044 -0.94125,0 -1.755,0.86133 -1.77125,1.3877 0,0.0317 0,0.0806 0.11125,0.0806 l 1.13375,0 z m -0.99,0.47852 c -0.41625,0 -0.43,0.0317 -0.43,0.43066 0,1.6128 0.9425,2.98486 2.64875,2.98486 0.52751,0 0.97376,-0.15869 1.47001,-0.78125 0.15875,-0.0488 0.27,0.0479 0.2875,0.19141 -0.5275,1.08545 -1.67751,1.48438 -2.50751,1.48438 -1.0375,0 -1.85125,-0.44678 -2.31375,-1.05323 -0.47875,-0.62256 -0.67125,-1.37353 -0.67125,-2.0752 0,-1.96288 1.29375,-3.60741 3.20875,-3.60741 1.37376,0 2.26626,0.9414 2.26626,1.89844 0,0.22314 -0.0312,0.35156 -0.0625,0.41504 -0.0487,0.0976 -0.27125,0.1123 -0.9425,0.1123 l -2.95376,0" />
    <path
       inkscape:connector-curvature="0"
       id="path72"
       style="fill:#231f20;fill-opacity:1;fill-rule:nonzero;stroke:none"
       d="m 185.14,496.08645 c 0,-0.62403 0,-0.70313 -0.4325,-0.99024 l -0.14375,-0.0952 c -0.0637,-0.0635 -0.0637,-0.23926 0.0175,-0.28809 0.365,-0.12695 1.2125,-0.54198 1.61125,-0.78222 0.08,0.0156 0.1275,0.0483 0.1275,0.11181 l 0,0.9253 c 0,0.0811 0.0162,0.12841 0.0475,0.14453 0.55875,-0.46289 1.165,-0.95752 1.755,-0.95752 0.40125,0 0.72,0.25537 0.72,0.63867 0,0.52637 -0.43125,0.7334 -0.6875,0.7334 -0.15875,0 -0.23875,-0.0474 -0.34875,-0.11084 -0.24125,-0.16114 -0.48125,-0.25635 -0.70375,-0.25635 -0.25625,0 -0.44625,0.14405 -0.57375,0.31982 -0.16125,0.22315 -0.20875,0.68604 -0.20875,1.22803 l 0,2.17139 c 0,1.1504 0.0312,1.3418 0.63875,1.38965 l 0.57375,0.0474 c 0.1125,0.0806 0.08,0.35156 -0.0325,0.39892 -0.74875,-0.0317 -1.21125,-0.0474 -1.77125,-0.0474 -0.57375,0 -1.0525,0.0156 -1.4675,0.0474 -0.1125,-0.0474 -0.145,-0.31835 -0.0325,-0.39892 l 0.3025,-0.0474 c 0.59125,-0.0957 0.60875,-0.23925 0.60875,-1.38965 l 0,-2.79248" />
    <path
       inkscape:connector-curvature="0"
       id="path74"
       style="fill:#231f20;fill-opacity:1;fill-rule:nonzero;stroke:none"
       d="m 193.24875,494.44191 c 0.1425,0.35156 0.255,0.86183 0.255,1.29249 -0.0637,0.11132 -0.3025,0.14306 -0.3825,0.0493 -0.27125,-0.70459 -0.75,-1.16601 -1.405,-1.16601 -0.62375,0 -1.0225,0.39892 -1.0225,0.97412 0,0.65283 0.67125,1.00488 1.23125,1.32421 0.84375,0.47852 1.6275,1.02198 1.6275,2.15479 0,1.21338 -1.1175,1.81983 -2.3,1.81983 -0.75,0 -1.3075,-0.15968 -1.70875,-0.4795 -0.12625,-0.30273 -0.2225,-1.08495 -0.19,-1.61133 0.08,-0.0967 0.2875,-0.1123 0.3675,-0.0156 0.27125,0.87744 0.78125,1.64405 1.69125,1.64405 0.575,0 1.07,-0.33594 1.07,-1.02197 0,-0.73487 -0.63875,-1.13379 -1.23,-1.46827 -0.925,-0.52735 -1.58,-1.08642 -1.58,-1.96436 0,-1.16406 0.9575,-1.81884 2.17125,-1.81884 0.67125,0 1.26125,0.15869 1.405,0.2871" />
    <path
       inkscape:connector-curvature="0"
       id="path76"
       style="fill:#231f20;fill-opacity:1;fill-rule:nonzero;stroke:none"
       d="m 196.905,490.91411 c 0,0.559 -0.4,0.814 -0.83,0.814 -0.49625,0 -0.815,-0.35112 -0.815,-0.78225 0,-0.52737 0.4,-0.84625 0.86125,-0.84625 0.48,0 0.78375,0.36675 0.78375,0.8145 z m -1.30875,5.17234 c 0,-0.62403 0,-0.70313 -0.4325,-0.99024 l -0.1425,-0.0952 c -0.065,-0.0635 -0.065,-0.23926 0.0162,-0.28809 0.3675,-0.12695 1.27625,-0.54198 1.64375,-0.78222 0.08,0 0.14375,0.0327 0.15875,0.0962 -0.03,0.55909 -0.0637,1.32569 -0.0637,1.97999 l 0,2.87206 c 0,1.1504 0.0337,1.3086 0.6075,1.38965 l 0.33375,0.0474 c 0.1125,0.0806 0.0812,0.35156 -0.0312,0.39892 -0.47875,-0.0317 -0.94125,-0.0474 -1.5,-0.0474 -0.57375,0 -1.05375,0.0156 -1.50125,0.0474 -0.11125,-0.0474 -0.1425,-0.31835 -0.0312,-0.39892 l 0.33625,-0.0474 c 0.58875,-0.0811 0.60625,-0.23925 0.60625,-1.38965 l 0,-2.79248" />
    <path
       inkscape:connector-curvature="0"
       id="path78"
       style="fill:#231f20;fill-opacity:1;fill-rule:nonzero;stroke:none"
       d="m 201.00625,495.04885 c -0.27125,0 -0.28625,0.0474 -0.28625,0.38281 l 0,2.98486 c 0,0.9253 0.11125,1.771 1.165,1.771 0.15875,0 0.3025,-0.0317 0.43125,-0.0791 0.14375,-0.0474 0.35125,-0.22363 0.39875,-0.22363 0.1275,0 0.1925,0.17627 0.15875,0.271 -0.28625,0.33593 -0.86,0.73486 -1.675,0.73486 -1.37375,0 -1.66,-0.7666 -1.66,-1.72461 l 0,-3.65479 c 0,-0.43213 -0.0162,-0.4624 -0.335,-0.4624 l -0.4475,0 c -0.0962,-0.064 -0.11125,-0.23926 -0.0475,-0.33594 0.46125,-0.14257 0.8625,-0.35156 1.02125,-0.49462 0.2075,-0.19142 0.51125,-0.62208 0.67125,-0.94239 0.0787,-0.0317 0.27125,-0.0317 0.33375,0.0811 l 0,0.71727 c 0,0.28712 0.0175,0.3042 0.28875,0.3042 l 1.77125,0 c 0.19125,0.14405 0.16,0.57472 0.015,0.67042 l -1.80375,0" />
    <path
       inkscape:connector-curvature="0"
       id="path80"
       style="fill:#231f20;fill-opacity:1;fill-rule:nonzero;stroke:none"
       d="m 203.41875,503.9551 c 0,-0.43115 0.28625,-0.6377 0.6375,-0.6377 l 0.305,0 c 0.25375,0 0.415,-0.11181 0.525,-0.28759 0.46375,-0.71826 0.7825,-1.38819 0.92625,-1.77149 0.0475,-0.12842 0.16,-0.46386 0.16,-0.68701 0,-0.31885 -0.0637,-0.51025 -0.27125,-1.10156 l -1.245,-3.4165 c -0.27125,-0.74951 -0.38375,-1.13281 -0.9425,-1.24366 l -0.39875,-0.0811 c -0.0962,-0.0791 -0.08,-0.3501 0.0475,-0.39747 0.51125,0.0303 0.99125,0.0474 1.5175,0.0474 0.43,0 0.8775,-0.0171 1.38875,-0.0474 0.12625,0.0474 0.1425,0.31837 0.03,0.39747 l -0.3975,0.0811 c -0.22375,0.0474 -0.35125,0.0962 -0.35125,0.20703 0,0.19189 0.36625,1.22803 0.4625,1.49903 l 0.51,1.46972 c 0.0962,0.25538 0.39875,1.10157 0.46375,1.13282 0.0475,-0.0312 0.3025,-0.52588 0.59,-1.18018 l 0.5425,-1.26221 c 0.3525,-0.83008 0.55875,-1.4209 0.55875,-1.59668 0,-0.11132 -0.095,-0.22216 -0.3825,-0.26953 l -0.49375,-0.0811 c -0.1125,-0.0791 -0.0963,-0.3501 0.0312,-0.39747 0.51,0.0303 0.98875,0.0474 1.40375,0.0474 0.4,0 0.76625,-0.0171 1.21375,-0.0474 0.12875,0.063 0.14375,0.30274 0.0312,0.39747 l -0.27125,0.0478 c -0.52625,0.0967 -0.81375,0.55908 -1.35625,1.6919 l -0.895,1.8374 c -0.525,1.06787 -1.835,3.84618 -2.61625,5.58545 -0.27125,0.60693 -0.655,0.75097 -1.0225,0.75097 -0.4625,0 -0.70125,-0.28808 -0.70125,-0.68701" />
    <path
       inkscape:connector-curvature="0"
       id="path82"
       style="fill:#231f20;fill-opacity:1;fill-rule:nonzero;stroke:none"
       d="m 217.78625,494.63381 c -1.055,0 -1.83625,1.0044 -1.83625,2.76074 0,1.45264 0.655,3.0166 2.06,3.0166 1.40375,0 1.83375,-1.46875 1.83375,-2.69775 0,-1.35595 -0.54125,-3.07959 -2.0575,-3.07959 z m 3.4325,2.82421 c 0,1.9961 -1.375,3.43263 -3.36875,3.43263 -1.83625,0 -3.27125,-1.29249 -3.27125,-3.28809 0,-2.01074 1.515,-3.44775 3.3975,-3.44775 1.78875,0 3.2425,1.34033 3.2425,3.30321" />
    <path
       inkscape:connector-curvature="0"
       id="path84"
       style="fill:#231f20;fill-opacity:1;fill-rule:nonzero;stroke:none"
       d="m 224.74625,495.04885 c -0.27,0 -0.27,0.0303 -0.27,0.4624 l 0,3.36767 c 0,1.1504 0.0312,1.3418 0.60625,1.38965 l 0.57375,0.0474 c 0.11125,0.0806 0.0787,0.35157 -0.0325,0.39893 -0.71875,-0.0317 -1.18125,-0.0474 -1.74,-0.0474 -0.5725,0 -1.0525,0.0156 -1.5325,0.0474 -0.11125,-0.0474 -0.1425,-0.31835 -0.0312,-0.39893 l 0.3675,-0.0474 c 0.59125,-0.0811 0.60625,-0.23925 0.60625,-1.38965 l 0,-3.36767 c 0,-0.43213 0,-0.4624 -0.32,-0.4624 l -0.5575,0 c -0.0962,-0.064 -0.11125,-0.20751 -0.0475,-0.3042 l 0.685,-0.33448 c 0.1275,-0.0635 0.24,-0.16015 0.24,-0.31982 0,-0.92529 0.1125,-1.91504 0.49625,-2.80911 0.3975,-0.91063 1.2925,-2.02825 2.8725,-2.02825 0.845,0 1.56375,0.38275 1.56375,0.959 0,0.31875 -0.30375,0.57362 -0.60625,0.57362 -0.175,0 -0.2725,-0.0634 -0.3825,-0.19137 -0.30375,-0.35063 -0.75125,-0.70163 -1.2775,-0.70163 -0.49375,0 -0.895,0.30275 -1.13375,0.87738 -0.2875,0.73487 -0.35,1.90045 -0.35,2.69781 l 0,0.46289 c 0,0.43066 0,0.44775 0.27,0.44775 l 1.81875,0 c 0.17625,0.1587 0.065,0.60645 -0.11,0.67041 l -1.70875,0" />
    <path
       inkscape:connector-curvature="0"
       id="path86"
       style="fill:#231f20;fill-opacity:1;fill-rule:nonzero;stroke:none"
       d="m 241.03,497.95266 c 0,0.47949 0,2.3789 0.0475,2.79443 -0.0325,0.0962 -0.12875,0.1753 -0.3025,0.1753 -0.1925,-0.271 -0.655,-0.83008 -2.04375,-2.41065 l -3.70375,-4.2124 c -0.43125,-0.49609 -1.51625,-1.80469 -1.85125,-2.15577 l -0.0312,0 c -0.065,0.19142 -0.08,0.55763 -0.08,1.03712 l 0,3.479 c 0,0.75097 0.03,2.82617 0.2875,3.30468 0.11125,0.17579 0.4125,0.27247 0.8125,0.3042 l 0.49625,0.0474 c 0.095,0.12794 0.0787,0.31983 -0.0325,0.39893 -0.71875,-0.0317 -1.27625,-0.0474 -1.86875,-0.0474 -0.67,0 -1.10125,0.0156 -1.65875,0.0474 -0.1125,-0.0791 -0.12875,-0.30371 -0.0325,-0.39893 l 0.43125,-0.0474 c 0.3675,-0.0317 0.6225,-0.14452 0.7025,-0.32031 0.22375,-0.5747 0.2075,-2.52197 0.2075,-3.28857 l 0,-4.61283 c 0,-0.44675 -0.0163,-0.78125 -0.35125,-1.14837 -0.225,-0.22363 -0.60625,-0.336 -0.99,-0.38388 l -0.2725,-0.0316 c -0.095,-0.0962 -0.095,-0.3355 0.0337,-0.399 0.67,0.0474 1.515,0.0474 1.80375,0.0474 0.255,0 0.52625,-0.0156 0.73375,-0.0474 0.32,0.8145 2.21875,2.92091 2.72875,3.51223 l 1.55,1.73926 c 1.085,1.24511 1.8825,2.12255 2.6325,2.88916 l 0.0312,0 c 0.065,-0.0806 0.065,-0.33545 0.065,-0.66992 l 0,-3.4165 c 0,-0.74952 -0.015,-2.82523 -0.31875,-3.30473 -0.0962,-0.1425 -0.35125,-0.23925 -0.99125,-0.31887 l -0.27,-0.0316 c -0.1125,-0.0962 -0.0962,-0.35163 0.0312,-0.399 0.735,0.0317 1.2775,0.0474 1.88375,0.0474 0.6875,0 1.1025,-0.0156 1.64375,-0.0474 0.12875,0.0796 0.12875,0.30275 0.0325,0.399 l -0.22375,0.0316 c -0.51125,0.0796 -0.83,0.20762 -0.89375,0.336 -0.27125,0.57475 -0.23875,2.55371 -0.23875,3.2876 l 0,3.81445" />
    <path
       inkscape:connector-curvature="0"
       id="path88"
       style="fill:#231f20;fill-opacity:1;fill-rule:nonzero;stroke:none"
       d="m 245.9625,496.10207 c 1.18125,0 1.53375,-0.0649 1.66,-0.16016 0.0488,-0.0327 0.0963,-0.0962 0.0963,-0.3037 0,-0.44581 -0.30375,-1.0044 -1.22875,-1.0044 -0.9425,0 -1.755,0.86133 -1.7725,1.3877 0,0.0317 0,0.0806 0.1125,0.0806 l 1.1325,0 z m -0.98875,0.47852 c -0.415,0 -0.43125,0.0317 -0.43125,0.43066 0,1.6128 0.94125,2.98486 2.65,2.98486 0.52625,0 0.97375,-0.15869 1.46875,-0.78125 0.16,-0.0488 0.27125,0.0479 0.2875,0.19141 -0.52625,1.08545 -1.67625,1.48438 -2.50625,1.48438 -1.0375,0 -1.8525,-0.44678 -2.31625,-1.05323 -0.4775,-0.62256 -0.66875,-1.37353 -0.66875,-2.0752 0,-1.96288 1.2925,-3.60741 3.2075,-3.60741 1.37375,0 2.2675,0.9414 2.2675,1.89844 0,0.22314 -0.0312,0.35156 -0.0637,0.41504 -0.0475,0.0976 -0.2725,0.1123 -0.94125,0.1123 l -2.95375,0" />
    <path
       inkscape:connector-curvature="0"
       id="path90"
       style="fill:#231f20;fill-opacity:1;fill-rule:nonzero;stroke:none"
       d="m 250.4175,495.92629 c -0.36625,-0.89355 -0.55875,-1.05322 -0.9575,-1.1499 l -0.255,-0.0635 c -0.0812,-0.0791 -0.095,-0.31885 0.0488,-0.38184 0.49375,0.0303 0.94125,0.0474 1.42,0.0474 0.49375,0 0.9575,-0.0171 1.38875,-0.0474 0.1275,0.063 0.14375,0.30274 0.0312,0.38184 l -0.3675,0.0635 c -0.2225,0.0332 -0.35,0.1294 -0.35,0.22461 0,0.0952 0.08,0.39892 0.255,0.83007 l 0.99,2.44142 c 0.1425,0.36718 0.2875,0.65428 0.2875,0.68701 0.0487,-0.0327 0.175,-0.30371 0.3675,-0.76661 l 0.7825,-1.93115 c 0.20625,-0.51123 0.22125,-0.71728 0.1425,-0.92627 -0.1425,-0.35058 -0.3825,-0.47851 -0.73375,-0.55908 l -0.25625,-0.0635 c -0.11,-0.0952 -0.0812,-0.33448 0.0488,-0.38184 0.3975,0.0303 0.90875,0.0474 1.32375,0.0474 0.495,0 0.97375,-0.0171 1.51625,-0.0474 0.145,0.0474 0.145,0.30274 0.0475,0.38184 l -0.33375,0.0635 c -0.64,0.1294 -0.6075,0.17676 -0.415,0.73486 0.175,0.52589 1.0375,2.55371 1.21375,2.98437 0.095,0.23927 0.1575,0.41504 0.2075,0.44678 0.0312,-0.0317 0.11125,-0.1914 0.2225,-0.44678 0.2075,-0.4624 0.84625,-2.15428 1.085,-2.8247 0.12875,-0.36718 0.16,-0.57471 0.16,-0.68603 0,-0.0962 -0.0962,-0.1753 -0.28625,-0.2085 l -0.4,-0.0635 c -0.1275,-0.0791 -0.0962,-0.33448 0.0162,-0.38184 0.4625,0.0303 0.8625,0.0474 1.26,0.0474 0.30375,0 0.6875,-0.0171 1.03875,-0.0474 0.12875,0.063 0.1425,0.30274 0.0475,0.38184 l -0.32,0.0635 c -0.3825,0.0806 -0.52625,0.30273 -0.86125,1.00732 -0.43125,0.89209 -1.19625,2.8086 -1.5,3.62256 -0.22375,0.57373 -0.415,1.0376 -0.54375,1.45264 -0.0637,0.0479 -0.12625,0.0635 -0.2075,0.0635 -0.0637,0 -0.1275,-0.0156 -0.17625,-0.0635 -0.095,-0.2876 -0.3825,-1.1167 -0.65375,-1.75635 l -0.76625,-1.83594 c -0.11125,-0.28711 -0.35125,-0.81445 -0.36625,-0.81445 -0.0163,0 -0.24,0.4956 -0.3525,0.78272 l -0.83,1.9956 c -0.285,0.68603 -0.51,1.26123 -0.63625,1.62842 -0.0488,0.0479 -0.1125,0.0635 -0.19375,0.0635 -0.0625,0 -0.14375,-0.0156 -0.19,-0.0635 -0.0962,-0.33545 -0.35125,-0.98975 -0.48,-1.3252 l -1.46875,-3.60742" />
    <path
       inkscape:connector-curvature="0"
       id="path92"
       style="fill:#231f20;fill-opacity:1;fill-rule:nonzero;stroke:none"
       d="m 269.1125,498.24075 c 0,1.70751 0.095,1.96435 0.9575,2.02782 l 0.60625,0.0474 c 0.0962,0.0952 0.0637,0.35157 -0.0325,0.39893 -0.98875,-0.0317 -1.53125,-0.0474 -2.17,-0.0474 -0.67,0 -1.245,0.0156 -2.09125,0.0474 -0.095,-0.0474 -0.12875,-0.30371 -0.0312,-0.39893 l 0.49375,-0.0474 c 0.92625,-0.0957 0.95875,-0.32031 0.95875,-2.02782 l 0,-0.81446 c 0,-0.87744 -0.0487,-1.08495 -0.51125,-1.97852 l -1.88375,-3.67191 c -0.5425,-1.05362 -0.78125,-1.13425 -1.26125,-1.21337 l -0.4475,-0.0795 c -0.095,-0.11238 -0.0788,-0.3355 0.0325,-0.399 0.51125,0.0318 1.085,0.0474 1.85125,0.0474 0.735,0 1.30875,-0.0156 1.70875,-0.0474 0.14375,0.0474 0.14375,0.30275 0.0475,0.399 l -0.2075,0.0316 c -0.55875,0.0953 -0.67,0.16025 -0.67,0.28712 0,0.16025 0.415,1.07088 0.495,1.2305 0.59,1.18019 1.18,2.44141 1.8025,3.54249 0.49625,-0.84619 1.0225,-1.77148 1.5,-2.69775 0.44875,-0.83011 1.04,-1.91499 1.04,-2.10699 0,-0.0951 -0.28875,-0.2075 -0.6725,-0.25537 l -0.28625,-0.0316 c -0.11125,-0.11238 -0.095,-0.3355 0.0325,-0.399 0.57375,0.0318 1.03625,0.0474 1.5325,0.0474 0.49375,0 0.94125,-0.0156 1.4825,-0.0474 0.12875,0.0796 0.145,0.30275 0.0325,0.399 l -0.4475,0.0795 c -0.83,0.1285 -1.30875,1.14987 -2.10625,2.52347 l -1.005,1.73925 c -0.71875,1.1963 -0.75,1.35596 -0.75,2.58545 l 0,0.83009" />
    <path
       inkscape:connector-curvature="0"
       id="path94"
       style="fill:#231f20;fill-opacity:1;fill-rule:nonzero;stroke:none"
       d="m 276.68,494.63381 c -1.055,0 -1.8375,1.0044 -1.8375,2.76074 0,1.45264 0.65625,3.0166 2.06,3.0166 1.40625,0 1.83625,-1.46875 1.83625,-2.69775 0,-1.35595 -0.5425,-3.07959 -2.05875,-3.07959 z m 3.43125,2.82421 c 0,1.9961 -1.3725,3.43263 -3.3675,3.43263 -1.83625,0 -3.27375,-1.29249 -3.27375,-3.28809 0,-2.01074 1.5175,-3.44775 3.40125,-3.44775 1.7875,0 3.24,1.34033 3.24,3.30321" />
    <path
       inkscape:connector-curvature="0"
       id="path96"
       style="fill:#231f20;fill-opacity:1;fill-rule:nonzero;stroke:none"
       d="m 282.235,496.08645 c 0,-0.62403 0,-0.70313 -0.43125,-0.99024 l -0.1425,-0.0952 c -0.065,-0.0635 -0.065,-0.23926 0.015,-0.28809 0.36625,-0.12695 1.2125,-0.54198 1.61125,-0.78222 0.08,0.0156 0.12875,0.0483 0.12875,0.11181 l 0,0.9253 c 0,0.0811 0.0162,0.12841 0.0475,0.14453 0.55875,-0.46289 1.16625,-0.95752 1.75625,-0.95752 0.39875,0 0.7175,0.25537 0.7175,0.63867 0,0.52637 -0.43,0.7334 -0.685,0.7334 -0.16,0 -0.24,-0.0474 -0.3525,-0.11084 -0.23875,-0.16114 -0.4775,-0.25635 -0.7025,-0.25635 -0.255,0 -0.4475,0.14405 -0.57375,0.31982 -0.16,0.22315 -0.2075,0.68604 -0.2075,1.22803 l 0,2.17139 c 0,1.1504 0.0312,1.3418 0.63875,1.38965 l 0.575,0.0474 c 0.11125,0.0806 0.0787,0.35156 -0.0325,0.39892 -0.75,-0.0317 -1.21375,-0.0474 -1.7725,-0.0474 -0.575,0 -1.05375,0.0156 -1.4675,0.0474 -0.1125,-0.0474 -0.145,-0.31835 -0.0337,-0.39892 l 0.30375,-0.0474 c 0.59125,-0.0957 0.6075,-0.23925 0.6075,-1.38965 l 0,-2.79248" />
    <path
       inkscape:connector-curvature="0"
       id="path98"
       style="fill:#231f20;fill-opacity:1;fill-rule:nonzero;stroke:none"
       d="m 287.37625,491.66361 c 0,-0.94137 -0.0175,-1.03762 -0.49625,-1.32475 l -0.16,-0.0953 c -0.0788,-0.0482 -0.0788,-0.27187 0,-0.31925 0.4,-0.1285 1.15,-0.36775 1.725,-0.67137 0.0637,0 0.1275,0.0326 0.15875,0.0961 -0.0138,0.4795 -0.0475,1.27687 -0.0475,1.98 l 0,5.47511 c 0,0.20702 0.0163,0.23876 0.2875,0.23876 0.35125,0 0.65375,-0.17431 1.08625,-0.62255 l 0.65375,-0.70166 c 0.4475,-0.47851 0.56,-0.6543 0.56,-0.73389 0,-0.0791 -0.0812,-0.12792 -0.3525,-0.15967 l -0.3825,-0.0488 c -0.145,-0.0478 -0.145,-0.35059 0,-0.39795 l 0.36625,0 c 0.7025,0 1.645,-0.0317 2.53875,-0.12842 0.1125,0.0493 0.12625,0.32032 0.0312,0.39942 l -0.51,0.0952 c -0.32,0.0649 -0.59125,0.22315 -1.00625,0.55908 -0.6225,0.4956 -1.165,1.07032 -1.4525,1.34033 -0.1925,0.17579 -0.2075,0.25537 -0.1125,0.3833 0.27125,0.36719 0.5275,0.67139 1.07,1.27832 0.6225,0.70167 1.18125,1.32422 1.50125,1.62695 0.2225,0.20753 0.5425,0.3042 0.83,0.35157 l 0.2225,0.0317 c 0.1125,0.0806 0.0962,0.35156 -0.0325,0.39892 -0.46125,-0.0317 -1.005,-0.0474 -1.515,-0.0474 -0.64,0 -1.19625,0.0156 -1.66125,0.0474 -0.12625,-0.0635 -0.14375,-0.33545 -0.0312,-0.39892 l 0.2875,-0.0474 c 0.24,-0.0317 0.39875,-0.0635 0.39875,-0.16015 0,-0.0952 -0.0637,-0.20753 -0.27125,-0.44679 l -1.7075,-1.97998 c -0.1425,-0.15868 -0.31875,-0.22363 -0.495,-0.22363 -0.2875,0 -0.30375,0.0479 -0.30375,0.54346 l 0,0.87744 c 0,1.1504 0.0337,1.3086 0.6075,1.38965 l 0.3825,0.0474 c 0.11,0.0806 0.08,0.35156 -0.0312,0.39892 -0.5275,-0.0317 -0.98875,-0.0474 -1.54875,-0.0474 -0.57375,0 -1.05375,0.0156 -1.5325,0.0474 -0.1125,-0.0474 -0.14375,-0.31835 -0.0162,-0.39892 l 0.35125,-0.0474 c 0.59,-0.0811 0.6075,-0.23925 0.6075,-1.38965 l 0,-7.21532" />
  </g>
</svg>
