<svg width="352" height="56" viewBox="0 0 352 56" fill="none" xmlns="http://www.w3.org/2000/svg">
<path d="M0 19.4999L27.9998 16.4999L55.9995 19.4999V24.9998H0V19.4999Z" fill="#1B46E0"/>
<path d="M0 30.9998H55.9995V36.4997L27.9998 39.4997L0 36.4997V30.9998Z" fill="#1B46E0"/>
<path d="M0 41.9996L27.9998 45.4996L55.9995 41.9996V47.9996L27.9998 55.9995L0 47.9996V41.9996Z" fill="#1B46E0"/>
<path d="M0 7.99993L27.9998 0L55.9995 7.99993V13.9999L27.9998 10.4999L0 13.9999V7.99993Z" fill="#1B46E0"/>
<path d="M87.2279 44.46C84.7746 44.46 82.4899 44.0613 80.3739 43.264C78.2886 42.436 76.4639 41.286 74.8999 39.814C73.3666 38.3113 72.1706 36.548 71.3119 34.524C70.4533 32.5 70.0239 30.292 70.0239 27.9C70.0239 25.508 70.4533 23.3 71.3119 21.276C72.1706 19.252 73.3819 17.504 74.9459 16.032C76.5099 14.5293 78.3346 13.3793 80.4199 12.582C82.5053 11.754 84.7899 11.34 87.2739 11.34C89.9113 11.34 92.3186 11.8 94.4959 12.72C96.6733 13.6093 98.5133 14.9433 100.016 16.722L96.1519 20.356C94.9866 19.0987 93.6833 18.1633 92.2419 17.55C90.8006 16.906 89.2366 16.584 87.5499 16.584C85.8633 16.584 84.3146 16.86 82.9039 17.412C81.5239 17.964 80.3126 18.746 79.2699 19.758C78.2579 20.77 77.4606 21.966 76.8779 23.346C76.3259 24.726 76.0499 26.244 76.0499 27.9C76.0499 29.556 76.3259 31.074 76.8779 32.454C77.4606 33.834 78.2579 35.03 79.2699 36.042C80.3126 37.054 81.5239 37.836 82.9039 38.388C84.3146 38.94 85.8633 39.216 87.5499 39.216C89.2366 39.216 90.8006 38.9093 92.2419 38.296C93.6833 37.652 94.9866 36.686 96.1519 35.398L100.016 39.078C98.5133 40.826 96.6733 42.16 94.4959 43.08C92.3186 44 89.8959 44.46 87.2279 44.46Z" fill="#1B46E0"/>
<path d="M104.964 44V9.86798H110.714V44H104.964Z" fill="#1B46E0"/>
<path d="M129.577 44.322C126.847 44.322 124.455 43.7853 122.401 42.712C120.377 41.608 118.797 40.1053 117.663 38.204C116.559 36.3026 116.007 34.1406 116.007 31.718C116.007 29.2646 116.543 27.1026 117.617 25.232C118.721 23.3306 120.223 21.8433 122.125 20.77C124.057 19.6966 126.249 19.16 128.703 19.16C131.095 19.16 133.226 19.6813 135.097 20.724C136.967 21.7666 138.439 23.2386 139.513 25.14C140.586 27.0413 141.123 29.28 141.123 31.856C141.123 32.1013 141.107 32.3773 141.077 32.684C141.077 32.9906 141.061 33.282 141.031 33.558H120.561V29.74H137.995L135.741 30.936C135.771 29.5253 135.48 28.2833 134.867 27.21C134.253 26.1366 133.41 25.2933 132.337 24.68C131.294 24.0666 130.083 23.76 128.703 23.76C127.292 23.76 126.05 24.0666 124.977 24.68C123.934 25.2933 123.106 26.152 122.493 27.256C121.91 28.3293 121.619 29.602 121.619 31.074V31.994C121.619 33.466 121.956 34.7693 122.631 35.904C123.305 37.0386 124.256 37.9127 125.483 38.526C126.709 39.1393 128.12 39.446 129.715 39.446C131.095 39.446 132.337 39.2313 133.441 38.802C134.545 38.3726 135.526 37.698 136.385 36.778L139.467 40.32C138.363 41.608 136.967 42.6046 135.281 43.31C133.625 43.9846 131.723 44.322 129.577 44.322Z" fill="#1B46E0"/>
<path d="M161.55 44V39.032L161.228 37.974V29.28C161.228 27.5933 160.722 26.29 159.71 25.37C158.698 24.4193 157.165 23.944 155.11 23.944C153.73 23.944 152.365 24.1586 151.016 24.588C149.697 25.0173 148.578 25.6153 147.658 26.382L145.404 22.196C146.723 21.184 148.287 20.4326 150.096 19.942C151.936 19.4206 153.837 19.16 155.8 19.16C159.357 19.16 162.102 20.0186 164.034 21.736C165.997 23.4226 166.978 26.0446 166.978 29.602V44H161.55ZM153.822 44.322C151.982 44.322 150.372 44.0153 148.992 43.402C147.612 42.758 146.539 41.884 145.772 40.78C145.036 39.6453 144.668 38.3726 144.668 36.962C144.668 35.582 144.99 34.34 145.634 33.236C146.309 32.132 147.397 31.258 148.9 30.614C150.403 29.97 152.396 29.648 154.88 29.648H162.01V33.466H155.294C153.331 33.466 152.013 33.788 151.338 34.432C150.663 35.0453 150.326 35.812 150.326 36.732C150.326 37.7746 150.74 38.6026 151.568 39.216C152.396 39.8293 153.546 40.136 155.018 40.136C156.429 40.136 157.686 39.814 158.79 39.17C159.925 38.526 160.737 37.5753 161.228 36.318L162.194 39.768C161.642 41.2093 160.645 42.3287 159.204 43.126C157.793 43.9233 155.999 44.322 153.822 44.322Z" fill="#1B46E0"/>
<path d="M173.897 44V19.436H179.371V26.198L178.727 24.22C179.463 22.564 180.613 21.3066 182.177 20.448C183.772 19.5893 185.75 19.16 188.111 19.16V24.634C187.866 24.5726 187.636 24.542 187.421 24.542C187.207 24.5113 186.992 24.496 186.777 24.496C184.6 24.496 182.867 25.14 181.579 26.428C180.291 27.6853 179.647 29.5713 179.647 32.086V44H173.897Z" fill="#1B46E0"/>
<path d="M216.001 44.46C213.486 44.46 211.079 44.1073 208.779 43.402C206.479 42.666 204.654 41.7307 203.305 40.596L205.375 35.95C206.663 36.962 208.257 37.8053 210.159 38.48C212.06 39.1546 214.007 39.492 216.001 39.492C217.687 39.492 219.052 39.308 220.095 38.94C221.137 38.572 221.904 38.0813 222.395 37.468C222.885 36.824 223.131 36.1033 223.131 35.306C223.131 34.3246 222.778 33.5426 222.073 32.96C221.367 32.3466 220.447 31.8713 219.313 31.534C218.209 31.166 216.967 30.8286 215.587 30.522C214.237 30.2153 212.873 29.8626 211.493 29.464C210.143 29.0346 208.901 28.498 207.767 27.854C206.663 27.1793 205.758 26.29 205.053 25.186C204.347 24.082 203.995 22.6713 203.995 20.954C203.995 19.206 204.455 17.6113 205.375 16.17C206.325 14.698 207.751 13.5326 209.653 12.674C211.585 11.7846 214.023 11.34 216.967 11.34C218.899 11.34 220.815 11.5853 222.717 12.076C224.618 12.5666 226.274 13.272 227.685 14.192L225.799 18.838C224.357 17.9793 222.87 17.3506 221.337 16.952C219.803 16.5226 218.331 16.308 216.921 16.308C215.265 16.308 213.915 16.5073 212.873 16.906C211.861 17.3046 211.109 17.826 210.619 18.47C210.159 19.114 209.929 19.85 209.929 20.678C209.929 21.6593 210.266 22.4566 210.941 23.07C211.646 23.6526 212.551 24.1126 213.655 24.45C214.789 24.7873 216.047 25.1246 217.427 25.462C218.807 25.7686 220.171 26.1213 221.521 26.52C222.901 26.9186 224.143 27.44 225.247 28.084C226.381 28.728 227.286 29.602 227.961 30.706C228.666 31.81 229.019 33.2053 229.019 34.892C229.019 36.6093 228.543 38.204 227.593 39.676C226.673 41.1173 225.247 42.2826 223.315 43.172C221.383 44.0306 218.945 44.46 216.001 44.46Z" fill="#1B46E0"/>
<path d="M243.412 44.322C240.714 44.322 238.628 43.632 237.156 42.252C235.684 40.8413 234.948 38.7713 234.948 36.042V14.008H240.698V35.904C240.698 37.0693 240.99 37.974 241.572 38.618C242.186 39.262 243.029 39.584 244.102 39.584C245.39 39.584 246.464 39.2466 247.322 38.572L248.932 42.666C248.258 43.218 247.43 43.632 246.448 43.908C245.467 44.184 244.455 44.322 243.412 44.322ZM230.9 24.22V19.62H247.276V24.22H230.9Z" fill="#1B46E0"/>
<path d="M253.432 44V19.436H258.906V26.198L258.262 24.22C258.998 22.564 260.148 21.3066 261.712 20.448C263.307 19.5893 265.285 19.16 267.646 19.16V24.634C267.401 24.5726 267.171 24.542 266.956 24.542C266.742 24.5113 266.527 24.496 266.312 24.496C264.135 24.496 262.402 25.14 261.114 26.428C259.826 27.6853 259.182 29.5713 259.182 32.086V44H253.432Z" fill="#1B46E0"/>
<path d="M283.375 44.322C280.645 44.322 278.253 43.7853 276.199 42.712C274.175 41.608 272.595 40.1053 271.461 38.204C270.357 36.3026 269.805 34.1406 269.805 31.718C269.805 29.2646 270.341 27.1026 271.415 25.232C272.519 23.3306 274.021 21.8433 275.923 20.77C277.855 19.6966 280.047 19.16 282.501 19.16C284.893 19.16 287.024 19.6813 288.895 20.724C290.765 21.7666 292.237 23.2386 293.311 25.14C294.384 27.0413 294.921 29.28 294.921 31.856C294.921 32.1013 294.905 32.3773 294.875 32.684C294.875 32.9906 294.859 33.282 294.829 33.558H274.359V29.74H291.793L289.539 30.936C289.569 29.5253 289.278 28.2833 288.665 27.21C288.051 26.1366 287.208 25.2933 286.135 24.68C285.092 24.0666 283.881 23.76 282.501 23.76C281.09 23.76 279.848 24.0666 278.775 24.68C277.732 25.2933 276.904 26.152 276.291 27.256C275.708 28.3293 275.417 29.602 275.417 31.074V31.994C275.417 33.466 275.754 34.7693 276.429 35.904C277.103 37.0386 278.054 37.9127 279.281 38.526C280.507 39.1393 281.918 39.446 283.513 39.446C284.893 39.446 286.135 39.2313 287.239 38.802C288.343 38.3726 289.324 37.698 290.183 36.778L293.265 40.32C292.161 41.608 290.765 42.6046 289.079 43.31C287.423 43.9846 285.521 44.322 283.375 44.322Z" fill="#1B46E0"/>
<path d="M311.76 44.322C309.031 44.322 306.639 43.7853 304.584 42.712C302.56 41.608 300.981 40.1053 299.846 38.204C298.742 36.3026 298.19 34.1406 298.19 31.718C298.19 29.2646 298.727 27.1026 299.8 25.232C300.904 23.3306 302.407 21.8433 304.308 20.77C306.24 19.6966 308.433 19.16 310.886 19.16C313.278 19.16 315.409 19.6813 317.28 20.724C319.151 21.7666 320.623 23.2386 321.696 25.14C322.769 27.0413 323.306 29.28 323.306 31.856C323.306 32.1013 323.291 32.3773 323.26 32.684C323.26 32.9906 323.245 33.282 323.214 33.558H302.744V29.74H320.178L317.924 30.936C317.955 29.5253 317.663 28.2833 317.05 27.21C316.437 26.1366 315.593 25.2933 314.52 24.68C313.477 24.0666 312.266 23.76 310.886 23.76C309.475 23.76 308.233 24.0666 307.16 24.68C306.117 25.2933 305.289 26.152 304.676 27.256C304.093 28.3293 303.802 29.602 303.802 31.074V31.994C303.802 33.466 304.139 34.7693 304.814 35.904C305.489 37.0386 306.439 37.9127 307.666 38.526C308.893 39.1393 310.303 39.446 311.898 39.446C313.278 39.446 314.52 39.2313 315.624 38.802C316.728 38.3726 317.709 37.698 318.568 36.778L321.65 40.32C320.546 41.608 319.151 42.6046 317.464 43.31C315.808 43.9846 313.907 44.322 311.76 44.322Z" fill="#1B46E0"/>
<path d="M337.845 44.322C335.147 44.322 333.061 43.632 331.589 42.252C330.117 40.8413 329.381 38.7713 329.381 36.042V14.008H335.131V35.904C335.131 37.0693 335.423 37.974 336.005 38.618C336.619 39.262 337.462 39.584 338.535 39.584C339.823 39.584 340.897 39.2466 341.755 38.572L343.365 42.666C342.691 43.218 341.863 43.632 340.881 43.908C339.9 44.184 338.888 44.322 337.845 44.322ZM325.333 24.22V19.62H341.709V24.22H325.333Z" fill="#1B46E0"/>
<path d="M347.145 18.785V15.7407H348.688C348.812 15.7407 348.946 15.7765 349.092 15.848C349.238 15.9167 349.362 16.024 349.463 16.1698C349.568 16.3128 349.62 16.4943 349.62 16.7143C349.62 16.937 349.566 17.1268 349.459 17.2835C349.352 17.4375 349.221 17.5544 349.067 17.6341C348.916 17.7139 348.773 17.7538 348.638 17.7538H347.525V17.2587H348.432C348.523 17.2587 348.62 17.2134 348.725 17.1226C348.832 17.0319 348.886 16.8958 348.886 16.7143C348.886 16.5273 348.832 16.4007 348.725 16.3347C348.62 16.2688 348.528 16.2357 348.449 16.2357H347.813V18.785H347.145ZM348.985 17.3495L349.744 18.785H349.01L348.267 17.3495H348.985ZM348.3 20.6C347.844 20.6 347.416 20.5147 347.017 20.3442C346.618 20.1737 346.268 19.9372 345.965 19.6347C345.663 19.3322 345.426 18.9816 345.256 18.5829C345.085 18.1841 345 17.7565 345 17.3C345 16.8435 345.085 16.4159 345.256 16.0171C345.426 15.6184 345.663 15.2678 345.965 14.9653C346.268 14.6628 346.618 14.4263 347.017 14.2558C347.416 14.0853 347.844 14 348.3 14C348.757 14 349.184 14.0853 349.583 14.2558C349.982 14.4263 350.332 14.6628 350.635 14.9653C350.937 15.2678 351.174 15.6184 351.344 16.0171C351.515 16.4159 351.6 16.8435 351.6 17.3C351.6 17.7565 351.515 18.1841 351.344 18.5829C351.174 18.9816 350.937 19.3322 350.635 19.6347C350.332 19.9372 349.982 20.1737 349.583 20.3442C349.184 20.5147 348.757 20.6 348.3 20.6ZM348.3 19.808C348.762 19.808 349.183 19.6952 349.562 19.4697C349.942 19.2442 350.244 18.9417 350.47 18.5622C350.695 18.1827 350.808 17.762 350.808 17.3C350.808 16.838 350.695 16.4172 350.47 16.0377C350.244 15.6582 349.942 15.3557 349.562 15.1302C349.183 14.9047 348.762 14.792 348.3 14.792C347.838 14.792 347.417 14.9047 347.038 15.1302C346.658 15.3557 346.356 15.6582 346.13 16.0377C345.905 16.4172 345.792 16.838 345.792 17.3C345.792 17.762 345.905 18.1827 346.13 18.5622C346.356 18.9417 346.658 19.2442 347.038 19.4697C347.417 19.6952 347.838 19.808 348.3 19.808Z" fill="#1B46E0"/>
</svg>
